<?xml version="1.0" encoding="UTF-8" standalone="no"?>
<!DOCTYPE svg PUBLIC "-//W3C//DTD SVG 1.1//EN"
 "http://www.w3.org/Graphics/SVG/1.1/DTD/svg11.dtd">
<!-- Generated by graphviz version 2.26.0 (20091210.2329)
 -->
<!-- Title: G Pages: 1 -->
<svg width="132pt" height="423pt"
 viewBox="0.00 0.00 132.00 423.00" xmlns="http://www.w3.org/2000/svg" xmlns:xlink="http://www.w3.org/1999/xlink">
<g id="graph1" class="graph" transform="scale(1 1) rotate(0) translate(4 419)">
<title>G</title>
<polygon fill="white" stroke="white" points="-4,5 -4,-419 129,-419 129,5 -4,5"/>
<g id="graph2" class="cluster"><title>cluster_global</title>
<polyline fill="none" stroke="gray" points="20,-8 104,-8 "/>
<path fill="none" stroke="gray" d="M104,-8C110,-8 116,-14 116,-20"/>
<polyline fill="none" stroke="gray" points="116,-20 116,-395 "/>
<path fill="none" stroke="gray" d="M116,-395C116,-401 110,-407 104,-407"/>
<polyline fill="none" stroke="gray" points="104,-407 20,-407 "/>
<path fill="none" stroke="gray" d="M20,-407C14,-407 8,-401 8,-395"/>
<polyline fill="none" stroke="gray" points="8,-395 8,-20 "/>
<path fill="none" stroke="gray" d="M8,-20C8,-14 14,-8 20,-8"/>
<text text-anchor="middle" x="62" y="-393.1" font-family="Times Roman,serif" font-size="11.00" fill="gray">global</text>
</g>
<!-- \\Match -->
<g id="node2" class="node"><title>\\Match</title>
<a xlink:href="include.lib.Match.html" xlink:title="Match" target="_parent">
<polygon fill="none" stroke="black" points="89,-376 35,-376 35,-340 89,-340 89,-376"/>
<text text-anchor="middle" x="62" y="-355.1" font-family="Courier,monospace" font-size="11.00">Match</text>
</a>
</g>
<!-- \\UUID -->
<g id="node3" class="node"><title>\\UUID</title>
<a xlink:href="include.lib.UUID.html" xlink:title="UUID" target="_parent">
<polygon fill="none" stroke="black" points="89,-322 35,-322 35,-286 89,-286 89,-322"/>
<text text-anchor="middle" x="62" y="-301.1" font-family="Courier,monospace" font-size="11.00">UUID</text>
</a>
</g>
<!-- \\User -->
<g id="node4" class="node"><title>\\User</title>
<a xlink:href="include.lib.User.html" xlink:title="User" target="_parent">
<polygon fill="none" stroke="black" points="89,-268 35,-268 35,-232 89,-232 89,-268"/>
<text text-anchor="middle" x="62" y="-247.1" font-family="Courier,monospace" font-size="11.00">User</text>
</a>
</g>
<!-- \\RedisClient -->
<g id="node5" class="node"><title>\\RedisClient</title>
<a xlink:href="include.lib.RedisClient.html" xlink:title="RedisClient" target="_parent">
<polygon fill="none" stroke="black" points="107,-214 17,-214 17,-178 107,-178 107,-214"/>
<text text-anchor="middle" x="62" y="-193.1" font-family="Courier,monospace" font-size="11.00">RedisClient</text>
</a>
</g>
<!-- \\Session -->
<g id="node6" class="node"><title>\\Session</title>
<a xlink:href="include.lib.Session.html" xlink:title="Session" target="_parent">
<polygon fill="none" stroke="black" points="94,-160 30,-160 30,-124 94,-124 94,-160"/>
<text text-anchor="middle" x="62" y="-139.1" font-family="Courier,monospace" font-size="11.00">Session</text>
</a>
</g>
<!-- \\Mailer -->
<g id="node7" class="node"><title>\\Mailer</title>
<a xlink:href="include.lib.Mailer.html" xlink:title="Mailer" target="_parent">
<polygon fill="none" stroke="black" points="90,-106 34,-106 34,-70 90,-70 90,-106"/>
<text text-anchor="middle" x="62" y="-85.1" font-family="Courier,monospace" font-size="11.00">Mailer</text>
</a>
</g>
<!-- \\Validation -->
<g id="node8" class="node"><title>\\Validation</title>
<a xlink:href="include.lib.Validation.html" xlink:title="Validation" target="_parent">
<polygon fill="none" stroke="black" points="104,-52 20,-52 20,-16 104,-16 104,-52"/>
<text text-anchor="middle" x="62" y="-31.1" font-family="Courier,monospace" font-size="11.00">Validation</text>
</a>
</g>
</g>
</svg>
